<?xml version="1.0" encoding="UTF-8"?>
<svg version="1.1" xmlns="http://www.w3.org/2000/svg" width="155" height="162">
<path d="M0 0 C1.41248268 -0.0098568 1.41248268 -0.0098568 2.85350037 -0.01991272 C5.9900622 -0.03972054 9.12657569 -0.05133261 12.26318359 -0.0612793 C13.87206011 -0.06739259 13.87206011 -0.06739259 15.51343918 -0.07362938 C21.20410725 -0.09453437 26.89475099 -0.10880977 32.58544922 -0.11816406 C38.43463094 -0.12916237 44.28342524 -0.1634727 50.13247108 -0.20333576 C54.65044806 -0.22964799 59.16833546 -0.23786941 63.68638229 -0.24144554 C65.83989415 -0.24628374 67.99340275 -0.25781757 70.14683914 -0.27648354 C86.43346209 -0.40873614 102.23546077 -0.34628422 115.03662109 11.17700195 C117.89501138 14.03071402 120.6542549 16.90956675 123.03662109 20.17700195 C123.03662109 20.83700195 123.03662109 21.49700195 123.03662109 22.17700195 C123.69662109 22.17700195 124.35662109 22.17700195 125.03662109 22.17700195 C129.58920311 35.00146289 131.89563529 48.84970794 126.29052734 61.7590332 C121.17527902 71.62301673 112.84252726 82.23472348 101.85693359 85.8215332 C94.37445577 87.92778339 86.62497228 87.74926595 78.91162109 87.86450195 C77.36732252 87.89774232 75.82305043 87.93223796 74.27880859 87.96801758 C70.53160719 88.05214387 66.78433369 88.11931051 63.03662109 88.17700195 C71.77986115 99.3737376 80.60043356 110.51160405 89.73193359 121.39575195 C92.53544188 124.77896873 95.11003569 128.27777542 97.66552734 131.84887695 C98.143125 132.51274414 98.62072266 133.17661133 99.11279297 133.8605957 C100.11242308 135.25035741 101.10714249 136.64366317 102.09716797 138.0402832 C102.57347656 138.69899414 103.04978516 139.35770508 103.54052734 140.03637695 C103.97179932 140.63933594 104.40307129 141.24229492 104.84741211 141.86352539 C105.43607056 142.51369629 105.43607056 142.51369629 106.03662109 143.17700195 C106.69662109 143.17700195 107.35662109 143.17700195 108.03662109 143.17700195 C109.29327087 146.08300456 110.03662109 147.9730478 110.03662109 151.17700195 C109.27349609 151.15637695 108.51037109 151.13575195 107.72412109 151.11450195 C104.93476323 151.04757355 104.93476323 151.04757355 102.03662109 152.17700195 C102.03662109 151.51700195 102.03662109 150.85700195 102.03662109 150.17700195 C101.47676514 150.18747559 100.91690918 150.19794922 100.34008789 150.20874023 C97.80147802 150.25033521 95.2629399 150.2763388 92.72412109 150.30200195 C91.40250977 150.32713867 91.40250977 150.32713867 90.05419922 150.3527832 C89.20664063 150.35922852 88.35908203 150.36567383 87.48583984 150.37231445 C86.7055542 150.38278809 85.92526855 150.39326172 85.12133789 150.40405273 C83.03662109 150.17700195 83.03662109 150.17700195 80.03662109 148.17700195 C79.52099609 147.06325195 79.00537109 145.94950195 78.47412109 144.80200195 C76.31843676 140.2437992 73.28925471 136.68870861 70.02050781 132.87817383 C66.26549051 128.4939079 62.80759544 123.93450239 59.37255859 119.29418945 C56.87515398 115.96153247 54.3091937 112.69163183 51.72412109 109.42700195 C47.60795632 104.20224417 43.51328664 98.96157178 39.47412109 93.67700195 C38.96131592 93.01861328 38.44851074 92.36022461 37.92016602 91.68188477 C33.83219434 86.29366414 31.1662408 81.14004427 32.03662109 74.17700195 C33.53674578 71.61227266 34.92845574 69.28516731 37.03662109 67.17700195 C38.45649211 67.06512875 39.88173672 67.02029697 41.3059082 67.00341797 C42.2145311 66.98992813 43.12315399 66.97643829 44.05931091 66.96253967 C45.05084671 66.95210129 46.04238251 66.9416629 47.06396484 66.9309082 C49.15706745 66.89793577 51.25016631 66.86472476 53.34326172 66.83129883 C56.64767545 66.78411736 59.95207789 66.73976591 63.2565918 66.70019531 C66.44255652 66.6601399 69.62818811 66.60864121 72.81396484 66.5559082 C74.27394142 66.54328697 74.27394142 66.54328697 75.76341248 66.53041077 C84.51235678 66.37502004 93.075154 65.97822453 100.03662109 60.17700195 C105.2432345 54.53650409 106.51715521 49.48317148 106.34521484 41.95825195 C105.5786286 35.04927212 102.13955114 30.74277679 96.91552734 26.40356445 C92.02383123 23.21023269 87.23057926 22.77210867 81.50927734 22.55200195 C80.64689957 22.51405518 79.78452179 22.4761084 78.89601135 22.43701172 C66.42884216 21.95566068 53.94760332 22.10823694 41.47412109 22.17700195 C36.53532156 22.20357675 31.59655858 22.22350549 26.65771484 22.23950195 C24.97046547 22.25194946 24.97046547 22.25194946 23.24913025 22.26464844 C22.21276932 22.26795166 21.17640839 22.27125488 20.10864258 22.2746582 C19.19855942 22.27989502 18.28847626 22.28513184 17.35081482 22.29052734 C15.03662109 22.17700195 15.03662109 22.17700195 12.03662109 21.17700195 C12.03754289 21.83575789 12.03846468 22.49451384 12.03941441 23.17323208 C12.06146945 39.17967687 12.07803256 55.18611639 12.08843327 71.19257259 C12.09359626 78.93307477 12.10063902 86.67356682 12.11206055 94.4140625 C12.12200728 101.15827346 12.1284745 107.9024771 12.13070959 114.6466952 C12.13201671 118.21987061 12.13510268 121.79302506 12.14235115 125.36619377 C12.15036481 129.34862546 12.15061224 133.33103636 12.15014648 137.31347656 C12.15374176 138.50677582 12.15733704 139.70007507 12.16104126 140.92953491 C12.1596666 142.0079213 12.15829193 143.08630768 12.15687561 144.19737244 C12.1577974 145.14036666 12.1587192 146.08336088 12.15966892 147.05493069 C12.03662109 149.17700195 12.03662109 149.17700195 11.03662109 150.17700195 C9.47489365 150.26385798 7.90932765 150.28402415 6.34521484 150.2746582 C5.40097656 150.27143555 4.45673828 150.26821289 3.48388672 150.26489258 C2.49066406 150.25651367 1.49744141 150.24813477 0.47412109 150.23950195 C-0.52296875 150.23499023 -1.52005859 150.23047852 -2.54736328 150.22583008 C-5.01942739 150.21400202 -7.49137409 150.19752045 -9.96337891 150.17700195 C-9.98670653 130.76708783 -10.00435741 111.35717654 -10.01519108 91.94725132 C-10.02035433 82.93553258 -10.02739757 73.92382254 -10.03881836 64.91210938 C-10.04876432 57.06040645 -10.05523212 49.20870982 -10.0574674 41.35700077 C-10.05877466 37.19696743 -10.06186145 33.0369521 -10.06910896 28.87692451 C-10.07586779 24.96591783 -10.07799615 21.05493668 -10.07648659 17.14392471 C-10.07676298 15.70432967 -10.07876892 14.26473383 -10.08258438 12.82514381 C-10.08751942 10.86805963 -10.08577698 8.91096192 -10.08363342 6.95387268 C-10.08455522 5.85601724 -10.08547701 4.75816179 -10.08642673 3.627038 C-9.81148371 -1.84742115 -4.27960759 0.01280652 0 0 Z " fill="#38ABBD" transform="translate(18.96337890625,2.822998046875)"/>
<path d="M0 0 C0.33 0 0.66 0 1 0 C1.33 46.2 1.66 92.4 2 140 C7.61 140 13.22 140 19 140 C19 99.08 19 58.16 19 16 C19.33 16 19.66 16 20 16 C20.00423194 16.56523471 20.00846388 17.13046942 20.01282406 17.71283245 C20.11651241 31.52039869 20.22526048 45.32791729 20.33933926 59.13540173 C20.39441779 65.81282656 20.44774324 72.49025635 20.49731445 79.16772461 C20.54526983 85.6192561 20.59762093 92.07073868 20.65294075 98.52221107 C20.67322399 100.97598353 20.69195884 103.42976931 20.70907402 105.8835659 C20.75787129 122.44885277 20.75787129 122.44885277 21.89002991 138.96455383 C21.92632004 139.63625107 21.96261017 140.3079483 22 141 C21.67 141.33 21.34 141.66 21 142 C14.07 142 7.14 142 0 142 C0 95.14 0 48.28 0 0 Z " fill="#3CA3B1" transform="translate(9,11)"/>
<path d="M0 0 C4.44655551 2.26297914 7.07380311 5.25878445 10 9.1875 C10.95574355 10.43588273 11.91283451 11.68323477 12.87109375 12.9296875 C13.37366699 13.58678711 13.87624023 14.24388672 14.39404297 14.92089844 C17.23103487 18.59372043 20.14380901 22.20449247 23.0625 25.8125 C23.62259766 26.51205811 24.18269531 27.21161621 24.75976562 27.93237305 C25.54577148 28.90364136 25.54577148 28.90364136 26.34765625 29.89453125 C26.81179932 30.47050049 27.27594238 31.04646973 27.75415039 31.63989258 C28.97677127 33.13733531 28.97677127 33.13733531 31 34 C31.86582515 35.55848527 32.73040735 37.11767002 33.58984375 38.6796875 C35.43821212 41.72104709 37.50795787 44.58065171 39.625 47.4375 C40.40101562 48.48808594 41.17703125 49.53867188 41.9765625 50.62109375 C42.64429688 51.40613281 43.31203125 52.19117188 44 53 C44.66 53 45.32 53 46 53 C47.25664978 55.90600261 48 57.79604584 48 61 C47.236875 60.979375 46.47375 60.95875 45.6875 60.9375 C42.89814214 60.87057159 42.89814214 60.87057159 40 62 C40 61.34 40 60.68 40 60 C39.16021606 60.01571045 39.16021606 60.01571045 38.3034668 60.03173828 C35.76485693 60.07333326 33.2263188 60.09933685 30.6875 60.125 C29.36588867 60.15013672 29.36588867 60.15013672 28.01757812 60.17578125 C27.17001953 60.18222656 26.32246094 60.18867188 25.44921875 60.1953125 C24.66893311 60.20578613 23.88864746 60.21625977 23.0847168 60.22705078 C21 60 21 60 18 58 C17.484375 56.88625 16.96875 55.7725 16.4375 54.625 C14.28181567 50.06679725 11.25263361 46.51170666 7.98388672 42.70117188 C4.24130884 38.33142991 0.79144949 33.79066546 -2.625 29.16015625 C-4.365548 26.84419683 -6.12713286 24.56862138 -7.9375 22.30859375 C-8.43580322 21.6851709 -8.93410645 21.06174805 -9.44750977 20.41943359 C-10.4169253 19.21127785 -11.3911358 18.00694874 -12.37084961 16.80712891 C-14.88049429 13.67337822 -16.74825428 10.82676548 -18 7 C-13.98478191 10.86732793 -10.43516503 14.97501362 -6.9375 19.3125 C-6.37313232 20.00964111 -5.80876465 20.70678223 -5.22729492 21.42504883 C-0.29606123 27.55556735 4.43487304 33.82488027 9.125 40.140625 C11.94269681 43.93456188 14.80511523 47.69254576 17.6875 51.4375 C18.3211145 52.26254028 18.3211145 52.26254028 18.9675293 53.10424805 C20.88000411 55.64105508 20.88000411 55.64105508 23 58 C24.63256758 58.15714654 26.27135338 58.25085414 27.91015625 58.31640625 C28.89951172 58.35830078 29.88886719 58.40019531 30.90820312 58.44335938 C31.94912109 58.48267578 32.99003906 58.52199219 34.0625 58.5625 C35.62967773 58.62727539 35.62967773 58.62727539 37.22851562 58.69335938 C39.81886884 58.79981225 42.40932186 58.9018276 45 59 C39.46930736 51.54892797 33.83411973 44.21710827 28 37 C26.03081152 34.53263038 24.06351403 32.06377409 22.09765625 29.59375 C20.58446096 27.72268543 19.04754184 25.87072043 17.49609375 24.03125 C16.67238281 23.0515625 15.84867188 22.071875 15 21.0625 C14.236875 20.16660156 13.47375 19.27070312 12.6875 18.34765625 C11 16 11 16 11 13 C10.01 12.67 9.02 12.34 8 12 C6.8125 9.4375 6.8125 9.4375 6 7 C5.34 7 4.68 7 4 7 C0 2.52941176 0 2.52941176 0 0 Z " fill="#41A7B6" transform="translate(81,93)"/>
<path d="M0 0 C11.8916693 -0.0463578 23.78331707 -0.08188678 35.67505836 -0.10362434 C41.19697895 -0.11405772 46.71883767 -0.12820889 52.24072266 -0.15087891 C57.57048526 -0.17262302 62.90018838 -0.18457199 68.22999191 -0.18975449 C70.26253572 -0.19344741 72.2950763 -0.20065874 74.32759476 -0.21146011 C77.17631291 -0.22599575 80.02478584 -0.22797706 82.87353516 -0.22705078 C83.71223145 -0.23424133 84.55092773 -0.24143188 85.41503906 -0.24884033 C90.00949101 -0.23269455 93.67402152 0.24473286 98 2 C97.67 2.66 97.34 3.32 97 4 C95.86534302 3.83923477 94.73068604 3.67846954 93.56164551 3.51283264 C89.03630519 2.94995594 84.56972381 2.82769888 80.01367188 2.79467773 C79.15418945 2.78477814 78.29470703 2.77487854 77.40917969 2.76467896 C74.59573021 2.73333636 71.78226391 2.7084154 68.96875 2.68359375 C67.00719793 2.66300064 65.04565006 2.64200358 63.08410645 2.62062073 C57.94184795 2.56564339 52.79955103 2.51612759 47.65722656 2.46777344 C42.40165826 2.4173798 37.14614519 2.36178732 31.890625 2.30664062 C21.59379727 2.1993571 11.29692142 2.09784695 1 2 C0.67 1.34 0.34 0.68 0 0 Z " fill="#46ADBB" transform="translate(17,3)"/>
<path d="M0 0 C1.2065625 0.0309375 1.2065625 0.0309375 2.4375 0.0625 C2.1075 1.0525 1.7775 2.0425 1.4375 3.0625 C0.4475 3.3925 -0.5425 3.7225 -1.5625 4.0625 C-2.77132096 6.06266466 -2.77132096 6.06266466 -3.5625 8.0625 C-3.60491723 5.72955225 -3.60342937 3.39547433 -3.5625 1.0625 C-2.5625 0.0625 -2.5625 0.0625 0 0 Z " fill="#43A8B4" transform="translate(12.5625,2.9375)"/>
<path d="M0 0 C0.66 0 1.32 0 2 0 C2 0.66 2 1.32 2 2 C1.34 2 0.68 2 0 2 C0 1.34 0 0.68 0 0 Z " fill="#4AACBB" transform="translate(97,151)"/>
<path d="" fill="#47B3C2" transform="translate(0,0)"/>
<path d="" fill="#48B1C2" transform="translate(0,0)"/>
</svg>
